<svg xmlns="http://www.w3.org/2000/svg" viewBox="0 0 1920 1080"><style>.a{fill:#FFF;font-family:'AcuminPro-Regular';font-size:33px;}.b{fill:#FFF;font-family:'AcuminPro-Regular';font-size:24px;}</style><style type="text/css">  
	.st0{fill:none;stroke:#F7A5AA;stroke-width:5;stroke-miterlimit:10;}
	.st1{fill:none;}
	.st2{fill:none;stroke:#8CC63F;stroke-width:5;stroke-miterlimit:10;}
	.st3{fill:none;stroke:#0071BC;stroke-width:5;stroke-miterlimit:10;}
	.st4{fill:#FBB03B;}
</style><a xlink:href="#"><path class="st0" d="M1053 602c-20-3-25 0-82 7 -30 3-50 6-75 7 -36 2-59 0-92-2 -55-4-70-9-82-21 -8-8-18-22-13-32 4-9 20-10 33-10 21-1 30 6 52 10 15 3 25 2 45 1 27-1 46-6 130-28 34-9 39-11 51-12 18-2 45-5 77 4 13 4 32 10 51 26 7 6 36 31 35 65 0 6 0 25-11 30 -11 6-24-9-54-24C1111 619 1083 606 1053 602z"/><path class="st1" d="M788 580c25 8 63 16 110 15 35-1 44-7 125-19 76-11 99-10 122-2 27 10 46 26 58 38"/><text><textPath xlink:href="#SVGID_x5F_1_x5F_" startOffset="27.6367%"><tspan class="a">  create</tspan></textPath></text></a><a xlink:href="#"><path class="st0" d="M761 613c0 0-26 5-29 15 -4 10 6 22 9 26 12 16 29 22 95 36 40 9 60 12 85 5 9-3 18-7 24-15 10-14 9-38-2-49 -9-9-21-9-30-9C843 620 761 613 761 613z"/><path class="st1" d="M801 650c19 7 43 13 72 16 15 1 28 2 40 1"/><text><textPath xlink:href="#SVGID_x5F_2_x5F_" startOffset="3.0275%"><tspan class="b">  blog</tspan></textPath></text></a><a xlink:href="#"><path class="st0" d="M1052 606c-14-1-7 2-51 4 -23 1-31 1-38 8 -11 12-7 33-6 35 3 13 12 21 17 26 8 7 16 11 23 15 8 4 16 7 20 8 19 5 32-5 66-18 38-14 57-14 59-26 1-6-3-12-8-18C1109 609 1064 606 1052 606z"/><path class="st1" d="M969 655c13-4 32-9 55-9 34 0 60 10 74 17"/><text><textPath xlink:href="#SVGID_x5F_3_x5F_" startOffset="21.4845%"><tspan class="b">  creativity</tspan></textPath></text><path class="st1" d="M992 664c5 4 15 10 28 13 26 5 46-8 51-11"/><text><textPath xlink:href="#SVGID_x5F_4_x5F_" startOffset="21.1375%"><tspan class="b">  zine</tspan></textPath></text></a><a xlink:href="#"><path class="st0" d="M995 705c4 11-1 20-7 33 -4 8-13 26-33 41 -5 4-22 15-46 19 -32 5-40-9-103-23 -23-5-38-7-69-16 -27-8-39-13-48-25 -2-3-16-21-10-41 4-13 14-21 18-23 12-8 26-8 43-6 29 4 39 12 71 24 36 13 65 23 95 14 11-3 16-15 33-19 5-1 16-4 29 0C971 684 989 689 995 705z"/><path class="st1" d="M744 710c24 12 56 24 95 32 25 5 48 7 68 8"/><text><textPath xlink:href="#SVGID_x5F_5_x5F_" startOffset="7.715%"><tspan class="b">  generator</tspan></textPath></text></a><a xlink:href="#"><path class="st0" d="M1006 736c3-5 7-9 48-30 20-10 31-16 46-23 27-13 41-19 50-21 34-8 63 2 70 4 28 9 25 19 56 30 19 7 21 3 55 12 28 7 45 14 50 16 25 10 55 22 54 36 -1 10-17 16-19 17 -21 8-36-6-79-19 -36-11-38-6-71-18 -14-5-21-9-43-17 -23-8-35-12-43-13 -33-2-60 19-67 25 -24 19-21 31-45 48 -10 7-35 23-52 14C998 787 994 755 1006 736z"/><path class="st1" d="M1051 756c27-26 53-41 70-49 21-10 40-19 65-17 15 1 17 5 60 21 31 12 56 20 72 25 23 7 42 13 57 17"/><text><textPath xlink:href="#SVGID_x5F_6_x5F_" startOffset="7.3438%"><tspan class="b">  curated resources</tspan></textPath></text></a><a xlink:href="#"><path class="st2" d="M891 406c-3-9 3-20 3-21 5-10 15-14 20-16 31-13 46-19 67-23 19-3 47-9 86-7 29 1 47 2 71 11 7 3 38 15 66 46 19 21 28 41 40 70 18 42 21 71 22 80 1 6 2 27-4 51 -4 17-9 22-11 24 -12 12-33 12-47 7 -3-1-17-6-24-20 -4-9-1-11-5-22 -4-12-9-12-20-29 -6-10-10-17-12-26 -1-7 0-8 3-31 3-23 2-28 2-31 -1-4-3-15-10-25 -10-13-24-16-40-20 -14-3-28-4-53-3 -30 2-35 4-56 6C982 427 900 432 891 406z"/><path class="st1" d="M924 399c27-7 69-15 119-10 30 3 66 6 97 25 78 48 74 172 73 185"/><text><textPath xlink:href="#SVGID_x5F_7_x5F_" startOffset="11.3037%"><tspan class="a">   experience</tspan></textPath></text></a><a xlink:href="#"><path class="st2" d="M1183 370c7-1 13-3 16-8 7-11-6-33-13-43 0 0-1-1-1-1 0 0-41-53-187-40 -3 0-8 1-13 4 -9 6-9 14-15 22 -10 15-23 7-42 25 -2 2-18 16-14 26 0 1 2 4 7 6 20 8 50-13 85-23 7-2 30-8 57-5C1116 334 1157 365 1183 370z"/><path class="st1" d="M992 322c16-6 49-14 89-9 43 6 73 24 87 34"/><text><textPath xlink:href="#SVGID_x5F_8_x5F_" startOffset="3.1435%"><tspan class="b">  makerspaces</tspan></textPath></text></a><a xlink:href="#"><path class="st2" d="M1231 234c-22-14-39-16-44-17 -10-1-31-3-47 11 -11 10-19 27-14 41 2 5 5 8 18 17 33 23 42 20 51 33 3 4 5 15 11 37 5 21 6 27 12 33 7 6 12 5 30 8 23 4 41 8 55 20 14 12 17 25 28 25 6 0 10-4 12-5 12-10 12-30 8-43 -4-15-13-20-26-34 -18-20-13-24-34-58C1275 276 1260 252 1231 234z"/><path class="st1" d="M1168 270c43 14 59 33 66 49 7 16 4 29 17 42 11 11 22 9 39 23 10 8 16 16 19 22"/><text><textPath xlink:href="#SVGID_x5F_9_x5F_" startOffset="8.3253%"><tspan class="b">  fabrication</tspan></textPath></text></a><a xlink:href="#"><path class="st2" d="M1492 498c-22-16-36-12-54-33 -13-15-12-24-28-36 -8-7-25-20-41-14 -14 5-21 20-22 32 0 4-1 13 10 33 13 25 24 32 41 58 13 19 12 22 19 32 26 38 76 49 83 51 14 4 19 3 27 9 14 10 24 30 24 50 0 15-6 18-3 28 4 13 20 25 36 23 18-3 26-23 29-29 11-27-2-56-6-65 -17-35-36-30-69-72C1509 529 1518 517 1492 498z"/><path class="st1" d="M1400 477c17 40 38 64 55 79 15 14 22 15 81 57 31 22 42 31 49 46 11 23 8 48 4 62"/><text><textPath xlink:href="#SVGID_x5F_10_x5F_" startOffset="2.0995%"><tspan class="b">  interdisciplinary action</tspan></textPath></text></a><a xlink:href="#"><path class="st2" d="M1229 406c6-7 21-5 27-4 18 3 42 13 73 48 13 14 28 38 58 84 17 25 19 30 27 38 16 16 32 24 63 41 32 17 39 18 49 29 5 6 22 24 19 48 0 4-3 24-16 30 -9 5-22 2-66-28 -44-30-40-34-63-47 -37-22-49-13-89-38 -25-16-36-29-41-44 -4-12 0-14-2-32 -2-26-12-48-32-93C1229 423 1224 412 1229 406z"/><path class="st1" d="M1276 458c9 13 20 32 30 58 10 26 8 33 15 47 15 30 45 39 79 55 28 13 66 34 108 69"/><text><textPath xlink:href="#SVGID_x5F_11_x5F_" startOffset="13.29%"><tspan class="b">  design studio experiments</tspan></textPath></text></a><a xlink:href="#"><path class="st2" d="M1325 627c-19-10-21-20-35-21 -13-1-28 7-35 20 -8 15-3 30-2 32 8 21 33 28 46 32 13 4 15 1 33 5 26 5 44 14 48 16 20 10 26 19 61 38 8 5 16 9 25 6 9-3 15-12 16-21 0-4 0-11-13-27 -13-15-24-22-49-41 -25-18-20-16-25-19C1365 630 1352 641 1325 627z"/><path class="st1" d="M1303 660c20 11 37 17 49 20 13 3 21 4 32 9 16 7 26 17 33 25"/><text><textPath xlink:href="#SVGID_x5F_12_x5F_" startOffset="9.31%"><tspan class="b">  makings</tspan></textPath></text></a><a xlink:href="#"><path class="st3" d="M650 541c7 13 22 17 26 18 2 0 21 4 34-7 8-7 7-14 13-29 0 0 6-17 22-38 27-37 72-48 76-49 33-8 51 2 62-12 7-10 8-27 0-36 -17-20-69-2-108 11 -28 10-56 20-84 45 -13 12-29 30-38 54C647 511 642 527 650 541z"/><path class="st1" d="M683 550c4-18 15-51 42-80 56-60 135-57 148-56"/><text><textPath xlink:href="#SVGID_x5F_13_x5F_" startOffset="38.1175%"><tspan class="a">  research</tspan></textPath></text></a><a xlink:href="#"><path class="st3" d="M757 352c-5 6-13 16-10 25 3 8 16 11 21 12 21 4 28-6 59-10 16-2 19 0 43-3 19-3 24-5 27-7 13-9 8-20 21-34 14-15 24-6 40-23 10-11 9-17 22-28 5-4 10-7 10-12 1-8-10-14-13-16 -23-14-83-6-141 25C836 281 800 299 757 352z"/><path class="st1" d="M807 367c13-16 36-39 71-58 38-21 73-28 94-30"/><text><textPath xlink:href="#SVGID_x5F_14_x5F_" startOffset="16.797%"><tspan class="b">  interviews</tspan></textPath></text></a><a xlink:href="#"><path class="st3" d="M704 423c-14 5-20-2-35 0 -19 2-25 15-34 11 -11-4-12-26-12-29 -2-43 39-83 78-100 11-5 41-18 56-5 7 6 9 16 9 19 2 18-14 22-27 51 -9 20-8 32-21 44C715 416 711 420 704 423z"/><path class="st1" d="M657 410c2-11 7-34 25-57 22-27 49-36 59-39"/><text><textPath xlink:href="#SVGID_x5F_15_x5F_" startOffset="0.0975%"><tspan class="b">  practitioners</tspan></textPath></text></a><a xlink:href="#"><path class="st3" d="M686 433c-4-8-28-7-45 2 -5 2-16 9-30 36 -12 22-24 45-22 78 0 7 3 47 35 80 8 8 33 34 65 31 6-1 22-2 29-14 7-12-2-28-7-37 -16-29-33-27-49-51 -2-3-18-29-14-58C653 461 692 444 686 433z"/><path class="st1" d="M619 545c0 11 2 32 16 55 20 33 51 44 60 47"/><text><textPath xlink:href="#SVGID_x5F_16_x5F_" startOffset="3.9065%"><tspan class="b">  access</tspan></textPath></text></a><a xlink:href="#"><path class="st3" d="M673 663c7 8 8 18 8 22 1 13-2 32-14 40 -22 14-65-17-87-41 -11-12-8-13-23-30 -24-28-35-30-51-47 -38-40-36-95-36-103 1-15 2-47 23-58 14-7 29-1 36 1 27 10 39 37 46 51 15 34 3 39 17 79 10 28 20 58 46 69C650 651 663 650 673 663z"/><path class="st1" d="M512 480c-2 17-2 46 10 78 12 31 31 50 55 73 16 16 40 36 73 56"/><text><textPath xlink:href="#SVGID_x5F_17_x5F_" startOffset="0%"><tspan class="b">  visualization</tspan></textPath></text></a><a xlink:href="#"><path class="st3" d="M524 628c-6-3-13-6-19-3 -9 4-11 19-12 23 -4 33 29 66 49 86 24 24 45 36 85 61 23 14 54 31 93 34 9 1 21 0 28-7 10-10 10-31 0-44 -5-6-10-7-25-14 -28-13-28-17-47-25 -27-11-30-2-49-11 -19-8-33-26-61-63C560 658 546 639 524 628z"/><path class="st1" d="M555 703c12 15 31 35 58 53 30 20 58 30 77 35"/><text><textPath xlink:href="#SVGID_x5F_18_x5F_" startOffset="5.664%"><tspan class="b">  education</tspan></textPath></text></a><a xlink:href="#"><path class="st4" d="M737 496c2-3 4-6 7-9 2-1 2-1 4-1 -1 1-3 4-4 6 4-4 9-8 13-9 4-1 4 1 3 5 4-5 10-10 16-12 6-2 8 1 3 16 -4 12-4 24-5 37 -3 0-5 0-7 0 0-12 1-23 5-34 2-6 4-12-2-11 -6 2-12 8-15 17 -4 12-4 13-3 27 -2 0-3 0-5-1 0-12 1-17 4-29 2-6 5-11 0-10 -4 1-10 6-13 14 -3 9-4 9-2 22 -1 0-2-1-3-1C732 513 731 505 737 496z"/><path class="st4" d="M819 510c0 6 1 14 2 16 -3 0-4 0-7 1 -1-2-1-5-2-10 -1 5-4 13-12 13 -10 0-17-10-16-19 1-11 11-19 22-21 3-1 4-1 6-1 0-2 0-3 1-6 1-6 2-13-5-11 -6 2-9 7-11 12 -3 1-4 1-7 2 4-10 11-19 21-22 8-3 10 2 8 18C819 490 818 500 819 510zM812 496c-2 0-4 1-6 1 -8 1-13 5-13 12 0 5 3 10 9 10 11-1 10-9 11-21C812 497 812 496 812 496z"/><path class="st4" d="M834 489c5-12 10-24 16-35 2 0 3 0 5-1 -5 9-9 19-13 28 3 14 8 27 11 40 -1 0-2 0-4 0 -3-11-7-21-11-32 -2 4-3 7-4 10 1 7 1 12 2 24 -2 0-3 0-6 1 -3-34-2-64 10-96 2-1 3-1 5-2C839 448 836 468 834 489z"/><path class="st4" d="M864 437c2-6 2-8 4-14 2 0 3 0 5 0 -2 5-3 8-4 14C867 437 866 437 864 437zM860 453c2 0 3 0 6 0 -4 23-5 45-5 68 -3 0-5 1-6 1C854 498 856 477 860 453z"/><path class="st4" d="M874 470c1-6 1-12 2-17 2 0 3 0 5 0 0 2-1 9-1 11 2-6 6-13 10-12 8 2 10 16 11 25 1 13 4 25 7 38 -3 0-4 1-7 1 -2-12-5-25-6-37 -1-10-2-16-7-16 -5 0-9 9-9 23 0 11 1 23 2 34 -3 0-4 1-7 1C874 502 873 487 874 470z"/><path class="st4" d="M948 503c2 11 7 28-8 32 -10 3-19-5-22-15 3 0 4-1 7-1 3 7 9 10 13 9 8-3 5-17 4-25 0-2 0-4-1-5 -1 5-4 12-9 13 -10 1-20-16-22-26 -2-11 1-29 13-31 5-1 10 5 12 9 0-3 0-6-1-7 3 0 4 0 7 0 0 3 1 11 2 16C944 483 946 493 948 503zM931 501c7-1 8-6 6-18 -2-12-6-20-12-20 -6 0-10 9-8 22C919 497 926 502 931 501z"/><path class="st4" d="M988 431c6 19 7 37 10 56 1 3 1 9 1 14 -2 0-3 0-4 1 0-1-1-6-1-8 -1 7-4 11-8 11 -9 1-15-15-16-23 -1-9 1-28 11-30 5-1 8 3 9 6 -1-12-4-18-6-27C986 431 986 431 988 431zM986 496c7-1 7-7 6-18 -1-11-3-19-9-18 -5 1-8 9-7 21C977 493 982 496 986 496z"/><path class="st4" d="M1012 478c0 10 3 14 8 14 5 0 7-5 8-8 2 0 3 0 5 0 -2 5-7 17-14 17 -9 0-14-15-14-23 0-12 4-29 17-31 12-2 14 15 13 25 0 2 0 3-1 4C1027 476 1022 477 1012 478zM1031 470c1-9-1-16-8-15 -7 1-10 8-11 17C1020 471 1024 470 1031 470z"/><path class="st4" d="M1043 483c0 4 1 8 5 8 4 0 6-4 6-7 1-4 0-5-4-8 -6-3-7-8-7-15 1-8 3-16 9-17 6 0 9 9 8 17 -2 0-2 0-4 0 0-4-1-9-4-9 -3 0-5 4-5 8 0 4 1 6 5 9 7 4 7 10 7 15 -1 7-7 16-12 16 -6 0-8-10-8-16C1040 483 1041 483 1043 483z"/><path class="st4" d="M1065 432c-1-4-2-6-4-10 3 0 4 0 7 0 2 3 2 5 4 10C1069 432 1068 432 1065 432zM1068 446c3 0 4 0 7 0 1 19-2 36-5 54 -2 0-4 0-6 0C1067 481 1069 464 1068 446z"/><path class="st4" d="M1113 500c-2 17-14 23-30 21 -10-1-8-8-7-15 2 0 4 0 6 1 -1 6 1 8 5 9 11 2 18-7 19-18 0-2 1-4 1-5 -3 3-10 10-16 9 -9-2-11-18-9-26 2-9 5-29 16-28 6 0 11 7 12 12 0-3-1-7-1-8 2 1 3 1 5 1 1 4 2 12 2 17C1116 480 1115 490 1113 500zM1095 493c7 1 13-2 15-14 1-12-1-21-10-23 -7-1-9 8-11 20C1087 487 1090 492 1095 493z"/><path class="st4" d="M1125 470c0-5-1-11-3-15 2 1 3 1 4 2 1 2 2 8 2 10 0-5 0-11 5-8 8 4 13 15 13 25 0 9-2 18-4 28 -2 0-2 0-4 0 2-9 4-18 4-28 0-8-3-14-7-16 -5-2-5 7-6 17 -1 11-1 14-3 25 -2 0-3-1-5-1C1124 495 1125 483 1125 470z"/></a></svg>